<?xml version="1.0" encoding="utf-8"?>
<!-- Generator: Adobe Illustrator 25.1.0, SVG Export Plug-In . SVG Version: 6.00 Build 0)  -->
<svg version="1.1" id="Layer_1" xmlns="http://www.w3.org/2000/svg" xmlns:xlink="http://www.w3.org/1999/xlink" x="0px" y="0px"
	 viewBox="0 0 325.33 127.11" style="enable-background:new 0 0 325.33 127.11;" xml:space="preserve">
<style type="text/css">
	.st0{fill:#333333;}
</style>
<g id="pot">
	<path class="st0" d="M73.63,91.84h-5.26v-2.85c0.2-0.62,0.81-1.37,2.62-1.37c0,0,1.12-0.95,0-2.11l-0.42-0.22H12.12l-0.41,0.21
		c-1.12,1.17,0,2.11,0,2.11c2.17,0,2.62,1.07,2.7,1.71c0.03,0.27,0,0.46,0,0.46v2.05H9.15c0,0-2.84,0.56-2.19,3.45
		s4.56,3.67,5.85,3.89c1.3,0.22,1.59,1.28,1.59,1.28v14.22c0,2.85,1.94,5.17,4.33,5.17h45.3c2.39,0,4.33-2.31,4.33-5.17v-14.22
		c0,0,0.3-1.06,1.59-1.28c1.29-0.22,5.2-1,5.86-3.89S73.63,91.84,73.63,91.84z M13.57,96.14c0,0-2.89,0.31-4.14-1.47
		C8.17,92.89,15.99,96,13.57,96.14z M73.35,94.67c-1.26,1.78-4.14,1.47-4.14,1.47C66.79,96,74.61,92.89,73.35,94.67z"/>
	<g id="Carot">
		<path class="st0" d="M28.79,63.26l3.43-2.56l-4.48,1.6c-0.94-0.97-1.58-1.95-2-2.85l3.35-2.5l-3.83,1.37
			c-0.55-1.68-0.42-2.88-0.42-2.88l1.69-1.57l0.04-0.03l1.71-1.56c0,0,0.78-0.01,1.93,0.34c0.71,0.22,1.56,0.58,2.46,1.18
			l-1.58,3.75l2.53-3.02c0.86,0.73,1.73,1.69,2.51,2.97l-1.59,4.47l2.34-3.13c1.07,2.16,1.93,5.02,2.34,8.83
			C34.2,66.68,30.92,65.04,28.79,63.26z"/>
		<polygon class="st0" points="18.9,51.47 18.9,53.21 24.67,54.99 27.99,51.94 26.71,46.03 25.04,45.93 25.52,49.98 23.44,45.93 
			22.13,46.3 24.51,51.44 19.56,48.58 19.03,49.98 22.85,52.28 		"/>
	</g>
	<path class="st0" d="M55.89,68.88c-0.34-0.43-0.8-0.8-1.35-1.09c-0.01,0-0.01-0.01-0.03-0.01c-0.46-0.24-0.98-0.41-1.54-0.5
		c-0.33-0.06-0.67-0.09-1.03-0.09c-0.34,0-0.67,0.03-1,0.08c-0.47,0.08-0.92,0.2-1.32,0.39c-0.01,0-0.03,0.01-0.04,0.02
		c-0.74,0.32-1.34,0.8-1.7,1.37c-0.13,0.21-0.42,0.71-0.43,1.38c-0.03,1.27,0.95,2.11,1.11,2.24c0.09,0.06,0.33,0.24,0.68,0.24
		c0.49,0.01,0.81-0.29,0.86-0.35v1.45h3.41v-1.34c0.14,0.2,0.3,0.3,0.39,0.34c0.43,0.2,0.99,0.06,1.44-0.34
		c0.15-0.14,0.34-0.36,0.52-0.64c0.22-0.34,0.57-0.87,0.57-1.59C56.44,69.88,56.24,69.35,55.89,68.88z M50.29,71.27h-0.17
		c0,0-0.23-0.24-0.88-0.1c0,0,0.09-0.76,1.05-0.67V71.27z M53.83,71.4h-0.17v-0.77c0.96-0.1,1.05,0.66,1.05,0.66
		C54.05,71.16,53.83,71.4,53.83,71.4z"/>
	<path class="st0" d="M31.15,24.72c-0.34-0.43-0.8-0.8-1.35-1.09c-0.01,0-0.01-0.01-0.03-0.01c-0.46-0.24-0.98-0.41-1.54-0.5
		c-0.33-0.06-0.67-0.09-1.03-0.09c-0.34,0-0.67,0.03-1,0.08c-0.47,0.08-0.92,0.2-1.32,0.39c-0.01,0-0.03,0.01-0.04,0.02
		c-0.74,0.32-1.34,0.8-1.7,1.37c-0.13,0.21-0.42,0.71-0.43,1.38c-0.03,1.27,0.95,2.11,1.11,2.24c0.09,0.06,0.33,0.24,0.68,0.24
		c0.49,0.01,0.81-0.29,0.86-0.35v1.45h3.41v-1.36c0.14,0.2,0.3,0.3,0.39,0.34c0.43,0.2,0.99,0.06,1.44-0.34
		c0.15-0.14,0.34-0.36,0.52-0.64c0.22-0.34,0.57-0.87,0.57-1.59C31.7,25.71,31.5,25.18,31.15,24.72z M25.55,27.1h-0.17
		c0,0-0.23-0.24-0.88-0.1c0,0,0.09-0.76,1.05-0.67V27.1z M29.09,27.23h-0.17v-0.77c0.96-0.1,1.05,0.66,1.05,0.66
		C29.32,26.99,29.09,27.23,29.09,27.23z"/>
	<path class="st0" d="M48.99,72.9"/>
	<path class="st0" d="M23.96,80.52c0,0,1.96-0.7,2.56-2.65v-1.48c0,0,1.01-2.49,5.68-2.52s9.33,2.5,11.08,5.58
		c0,0-0.28,0.27-0.42,0.15s-4.75-3.02-8.45-3.02c-1.95,0-4.27,0.92-5.8,2.37c-0.05,0.05-0.09,0.09-0.12,0.11
		c-0.42-0.08-0.85-0.15-1.27-0.23c-0.36,0.26-0.73,0.52-1.12,0.78c-0.63,0.42-1.24,0.8-1.83,1.15
		C24.16,80.68,24.06,80.6,23.96,80.52z"/>
	<path class="st0" d="M45.27,13.53c0,0-2.08-0.14-3.18-1.85l-0.41-1.43c0,0-1.65-2.12-6.16-0.87s-8.29,4.96-9.13,8.39
		c0,0,0.34,0.18,0.45,0.02c0.11-0.15,3.74-4.2,7.29-5.21c1.88-0.53,4.36-0.28,6.23,0.7c0.06,0.03,0.11,0.06,0.15,0.08
		c0.39-0.19,0.77-0.38,1.16-0.57c0.42,0.15,0.85,0.3,1.29,0.45c0.72,0.23,1.41,0.43,2.08,0.6C45.12,13.73,45.19,13.63,45.27,13.53z"
		/>
	<path class="st0" d="M29.03,38.83c0.02-0.01,0.03-0.02,0.05-0.03c-0.16,0.17-0.32,0.3-0.5,0.35
		C28.72,39.02,28.87,38.91,29.03,38.83z"/>
	<path class="st0" d="M31.7,38.99c0,0-0.06-0.04-0.17-0.11C31.6,38.91,31.65,38.95,31.7,38.99z"/>
	<path class="st0" d="M32.7,40.97c0,1.36-1.1,2.47-2.46,2.47c-1.36,0-2.47-1.11-2.47-2.47c0-0.69,0.29-1.31,0.74-1.76
		c0,0,0,0,0.01,0c0.02-0.02,0.04-0.04,0.06-0.06h0.01c0.17-0.05,0.34-0.18,0.5-0.35c0.64-0.67,1.16-2.04,1.16-2.04
		c0.08,1.1,0.93,1.84,1.3,2.12c0.1,0.08,0.17,0.11,0.17,0.11C32.31,39.44,32.7,40.16,32.7,40.97z"/>
	<path class="st0" d="M28.58,39.15c-0.03,0.02-0.04,0.04-0.06,0.06c-0.01,0-0.01,0-0.01,0C28.43,39.21,28.45,39.19,28.58,39.15z"/>
	<path class="st0" d="M57.43,53.03c-0.24,2.84-3.28,5.2-6.33,5.2c-2.98,0-6.21-2.24-6.33-5.2c-0.1-2.42,1.93-4.45,3.59-5.14
		c0.48-0.2,1.17-0.38,1.93-0.47l0.13-0.02c0.13-0.01,0.25-0.03,0.39-0.03v-1.75h1.25v0.32l-0.73,1.42c0.33,0,0.83,0.01,1.43,0.13
		c0.53,0.11,1.98,0.41,3.15,1.62C56.04,49.24,57.62,50.88,57.43,53.03z"/>
	<path class="st0" d="M59.23,29.11c0.79-1.03,1.25-2.32,1.25-3.72c0-3.4-2.75-6.14-6.14-6.14c-1.77,0-3.37,0.75-4.49,1.95
		c-1.12-1.2-2.72-1.95-4.48-1.95c-3.14,0-5.74,2.35-6.11,5.39c-0.03,0.25-0.04,0.5-0.04,0.75c0,1.82,0.79,3.45,2.04,4.57
		c0.09,0.08,0.18,0.16,0.27,0.24l-0.22,0.25c0.03,0.38,0.05,0.76,0.05,1.14c0,3.08-1.11,5.91-2.97,8.09l4.74,4.06
		c1.7-2.11,4.08-3.64,6.81-4.29c0.72-0.18,1.46-0.29,2.23-0.32c1.06,0.89,2.43,1.42,3.93,1.42c0.69,0,1.35-0.11,1.97-0.32
		c2.43-0.82,4.19-3.12,4.19-5.83C62.25,32.14,61.04,30.17,59.23,29.11z M44.94,34.7l-0.18-3.46l1.86-0.11l0.62,1.06l-1.98,2.58
		L44.94,34.7z M47,36.3L46.87,36l2.11-2.47l1.16,0.38l0.29,1.83L47,36.3z"/>
</g>
<g>
	<path class="st0" d="M98.91,83.54c-2.5-1.25-4.41-3.03-5.74-5.33c-1.33-2.3-2-4.98-2-8.03c0-4.23,0.79-7.99,2.36-11.27
		c1.57-3.28,3.71-5.82,6.4-7.62c2.69-1.8,5.68-2.7,8.97-2.7c3.06,0,5.39,0.8,6.97,2.4c1.59,1.6,2.38,3.71,2.38,6.33
		c0,1.76-0.31,3.17-0.91,4.23c-0.61,1.07-1.48,1.6-2.62,1.6c-0.79,0-1.42-0.19-1.87-0.56c-0.45-0.37-0.68-0.92-0.68-1.64
		c0-0.26,0.06-0.73,0.17-1.43c0.17-0.86,0.25-1.55,0.25-2.07c0-2.62-1.38-3.93-4.12-3.93c-1.87,0-3.66,0.62-5.36,1.86
		c-1.7,1.24-3.08,3.06-4.12,5.46c-1.05,2.4-1.57,5.26-1.57,8.57c0,3.45,0.95,6.12,2.85,8.01c1.9,1.88,4.71,2.83,8.42,2.83
		c1.84,0,3.71-0.24,5.59-0.71c1.89-0.47,3.98-1.2,6.27-2.18c0.43-0.17,0.78-0.26,1.06-0.26c0.45,0,0.79,0.17,1.02,0.52
		c0.23,0.34,0.34,0.79,0.34,1.34c0,1.76-0.94,3.05-2.81,3.89c-2.01,0.89-4.1,1.55-6.27,1.96s-4.23,0.63-6.19,0.63
		C104.34,85.42,101.4,84.79,98.91,83.54z"/>
	<path class="st0" d="M144.14,76.09c0.21,0.35,0.32,0.82,0.32,1.42c0,1.15-0.27,2.04-0.81,2.68c-1.3,1.53-2.64,2.78-4.02,3.76
		c-1.38,0.98-2.94,1.47-4.7,1.47c-1.45,0-2.54-0.42-3.27-1.27c-0.74-0.85-1.11-2.08-1.11-3.69c0-0.81,0.2-2.25,0.6-4.32
		c0.37-1.81,0.55-3.07,0.55-3.76c0-0.46-0.16-0.69-0.47-0.69c-0.37,0-0.89,0.48-1.57,1.45c-0.68,0.96-1.36,2.24-2.04,3.82
		c-0.68,1.58-1.23,3.25-1.66,5.01c-0.54,2.3-1.87,3.45-4,3.45c-0.85,0-1.41-0.31-1.68-0.93c-0.27-0.62-0.4-1.73-0.4-3.35
		c0-0.92,0.01-1.66,0.04-2.2l0.04-3.45c0-4.43,0.45-9.05,1.34-13.86c0.89-4.81,2.21-8.84,3.96-12.11c1.74-3.27,3.83-4.9,6.27-4.9
		c1.3,0,2.36,0.57,3.17,1.71c0.81,1.14,1.21,2.61,1.21,4.42c0,2.91-0.84,5.92-2.51,9.05c-1.67,3.12-4.4,6.77-8.17,10.95
		c-0.08,1.5-0.13,3.04-0.13,4.62c0.94-2.45,1.98-4.44,3.13-5.98c1.15-1.54,2.28-2.64,3.4-3.3c1.12-0.66,2.15-0.99,3.08-0.99
		c1.84,0,2.76,0.94,2.76,2.81c0,1.12-0.31,3.15-0.94,6.09c-0.54,2.5-0.81,4.16-0.81,4.96c0,1.15,0.41,1.73,1.23,1.73
		c0.57,0,1.24-0.35,2.02-1.06c0.78-0.7,1.82-1.85,3.13-3.43c0.34-0.4,0.72-0.6,1.15-0.6C143.63,75.57,143.92,75.74,144.14,76.09z
		 M128.93,51.11c-0.62,1.48-1.23,3.48-1.81,6c-0.58,2.52-1.06,5.26-1.42,8.22c1.76-2.1,3.21-4.39,4.36-6.87
		c1.15-2.47,1.72-4.72,1.72-6.74c0-0.92-0.1-1.63-0.3-2.12c-0.2-0.49-0.48-0.73-0.85-0.73C130.12,48.89,129.56,49.63,128.93,51.11z"
		/>
	<path class="st0" d="M163.55,72.51c0.2,0.38,0.3,0.85,0.3,1.43c0,1.38-0.41,2.2-1.23,2.46c-1.7,0.6-3.57,0.95-5.61,1.04
		c-0.54,2.42-1.6,4.35-3.19,5.81c-1.59,1.45-3.39,2.18-5.4,2.18c-1.7,0-3.15-0.42-4.36-1.25s-2.12-1.94-2.74-3.32
		c-0.62-1.38-0.94-2.88-0.94-4.49c0-2.19,0.41-4.14,1.23-5.85c0.82-1.71,1.96-3.05,3.4-4.02c1.45-0.96,3.05-1.45,4.81-1.45
		c2.15,0,3.89,0.75,5.21,2.27c1.32,1.51,2.09,3.38,2.32,5.59c1.33-0.09,2.92-0.37,4.76-0.86c0.23-0.06,0.43-0.09,0.6-0.09
		C163.07,71.94,163.35,72.13,163.55,72.51z M151.11,79.72c0.67-0.75,1.11-1.83,1.34-3.24c-0.88-0.6-1.55-1.4-2.02-2.38
		c-0.47-0.98-0.7-2.01-0.7-3.11c0-0.46,0.04-0.92,0.13-1.38h-0.21c-1.13,0-2.08,0.55-2.83,1.66c-0.75,1.11-1.13,2.67-1.13,4.68
		c0,1.58,0.3,2.79,0.91,3.63c0.61,0.84,1.33,1.25,2.15,1.25C149.66,80.84,150.44,80.47,151.11,79.72z"/>
	<path class="st0" d="M160.93,83.69c-0.44-1.15-0.66-2.99-0.66-5.53c0-3.74,0.52-7.3,1.57-10.66c0.25-0.83,0.67-1.45,1.25-1.83
		c0.58-0.39,1.4-0.58,2.45-0.58c0.57,0,0.96,0.07,1.19,0.22c0.23,0.14,0.34,0.42,0.34,0.82c0,0.46-0.21,1.5-0.64,3.11
		c-0.28,1.15-0.51,2.16-0.68,3.02c-0.17,0.86-0.31,1.93-0.43,3.2c0.94-2.48,1.98-4.49,3.15-6.04c1.16-1.55,2.3-2.66,3.42-3.32
		c1.12-0.66,2.15-0.99,3.08-0.99c1.84,0,2.76,0.94,2.76,2.81c0,0.37-0.13,1.28-0.38,2.72c-0.23,1.15-0.34,1.87-0.34,2.16
		c0,1.01,0.36,1.51,1.06,1.51c0.79,0,1.81-0.63,3.06-1.9c0.37-0.37,0.75-0.56,1.15-0.56c0.37,0,0.66,0.17,0.87,0.5
		s0.32,0.77,0.32,1.32c0,1.07-0.28,1.9-0.85,2.5c-0.79,0.84-1.72,1.55-2.79,2.14c-1.06,0.59-2.19,0.88-3.38,0.88
		c-1.5,0-2.64-0.39-3.42-1.17c-0.78-0.78-1.17-1.83-1.17-3.15c0-0.43,0.04-0.86,0.13-1.29c0.06-0.58,0.09-0.96,0.09-1.17
		c0-0.46-0.16-0.69-0.47-0.69c-0.43,0-0.99,0.48-1.68,1.45c-0.7,0.96-1.38,2.24-2.06,3.82c-0.68,1.58-1.23,3.25-1.66,5.01
		c-0.31,1.35-0.67,2.27-1.08,2.74c-0.41,0.47-1.06,0.71-1.94,0.71C162.13,85.42,161.37,84.84,160.93,83.69z"/>
	<path class="st0" d="M203.02,72.51c0.2,0.38,0.3,0.85,0.3,1.43c0,0.72-0.1,1.27-0.3,1.66c-0.2,0.39-0.51,0.65-0.94,0.8
		c-1.7,0.6-3.57,0.95-5.61,1.04c-0.57,2.39-1.64,4.32-3.21,5.79s-3.31,2.2-5.21,2.2c-2.86,0-4.95-1.11-6.25-3.32
		c-1.3-2.22-1.96-5.43-1.96-9.63c0-3.71,0.45-7.75,1.36-12.11c0.91-4.36,2.23-8.07,3.98-11.14c1.74-3.07,3.82-4.6,6.23-4.6
		c1.3,0,2.35,0.57,3.15,1.71c0.79,1.14,1.19,2.61,1.19,4.42c0,2.36-0.44,4.71-1.32,7.04c-0.88,2.33-2.34,4.78-4.38,7.34
		c1.9,0.14,3.45,0.94,4.64,2.4c1.19,1.45,1.9,3.25,2.13,5.38c1.33-0.09,2.92-0.37,4.76-0.86c0.17-0.06,0.37-0.09,0.6-0.09
		C202.53,71.94,202.82,72.13,203.02,72.51z M190.56,79.72c0.68-0.75,1.13-1.83,1.36-3.24c-0.88-0.6-1.55-1.4-2.02-2.38
		c-0.47-0.98-0.7-2.01-0.7-3.11c0-0.4,0.06-0.95,0.17-1.64h-0.13c-1.16,0-2.13,0.58-2.91,1.75c-0.78,1.17-1.17,2.73-1.17,4.68
		c0,1.64,0.3,2.89,0.91,3.76s1.33,1.3,2.15,1.3C189.09,80.84,189.87,80.47,190.56,79.72z M188.58,51.46
		c-0.67,1.71-1.28,4.04-1.85,6.97c-0.57,2.94-0.99,6.15-1.28,9.63c1.87-3.48,3.37-6.56,4.49-9.22c1.12-2.66,1.68-5.03,1.68-7.1
		c0-0.92-0.11-1.63-0.32-2.12s-0.5-0.73-0.87-0.73C189.86,48.89,189.24,49.75,188.58,51.46z"/>
	<path class="st0" d="M200.61,83.47c-1.01-1.29-1.51-2.99-1.51-5.09c0-2.3,0.52-4.48,1.57-6.54c1.05-2.06,2.45-3.71,4.19-4.96
		c1.74-1.25,3.59-1.88,5.55-1.88c0.62,0,1.04,0.12,1.25,0.37c0.21,0.25,0.39,0.68,0.53,1.32c0.54-0.12,1.13-0.17,1.79-0.17
		c0.68,0,1.2,0.17,1.57,0.52c0.37,0.35,0.55,0.84,0.55,1.47c0,0.66-0.14,1.81-0.42,3.45c-0.31,1.76-0.55,3.43-0.72,5.03
		c-0.17,1.6-0.25,3.39-0.25,5.38c0,1.09-0.22,1.88-0.66,2.35c-0.44,0.47-1.16,0.71-2.15,0.71c-0.96,0-1.68-0.24-2.15-0.71
		c-0.47-0.48-0.7-1.25-0.7-2.31l0.04-0.69c-0.88,2.48-2.4,3.71-4.55,3.71C202.93,85.42,201.62,84.77,200.61,83.47z M208.37,79.37
		c0.65-1.12,1.23-3.12,1.74-6l0.81-4.36c-1.16,0.03-2.24,0.48-3.23,1.36s-1.79,2.04-2.38,3.48c-0.59,1.44-0.89,2.96-0.89,4.58
		c0,0.86,0.16,1.52,0.49,1.96c0.33,0.45,0.76,0.67,1.3,0.67C207,81.06,207.72,80.49,208.37,79.37z"/>
	<path class="st0" d="M235.89,84.98c-1.13-0.14-1.91-0.45-2.34-0.91c-0.42-0.46-0.61-1.21-0.55-2.25c0.2-2.85,0.67-6.37,1.4-10.56
		c0.74-4.19,1.63-8.22,2.68-12.11c0.2-0.72,0.59-1.22,1.19-1.51c0.6-0.29,1.38-0.43,2.34-0.43c1.73,0,2.59,0.49,2.59,1.47
		c0,0.4-0.08,0.86-0.25,1.38c-0.74,2.3-1.47,5.39-2.21,9.26s-1.26,7.56-1.57,11.07c0.85,0.09,1.81,0.13,2.89,0.13
		c4.96,0,8.67-1.53,11.12-4.58c2.45-3.05,3.68-7.12,3.68-12.22c0-3.42-0.96-6.07-2.89-7.94c-1.93-1.87-4.65-2.81-8.17-2.81
		c-2.27,0-4.51,0.36-6.74,1.08c-2.23,0.72-4.23,1.67-6.02,2.85c-0.37,0.26-0.76,0.39-1.19,0.39c-0.48,0-0.87-0.21-1.15-0.63
		s-0.42-0.93-0.42-1.53c0-0.69,0.11-1.26,0.34-1.71c0.23-0.45,0.61-0.86,1.15-1.23c1.96-1.35,4.25-2.38,6.89-3.09
		c2.64-0.71,5.17-1.06,7.61-1.06c3.46,0,6.45,0.61,8.97,1.83c2.52,1.22,4.47,3.02,5.83,5.38c1.36,2.36,2.04,5.21,2.04,8.55
		c0,4.35-0.85,8.14-2.55,11.38s-4.18,5.75-7.44,7.53c-3.26,1.79-7.14,2.68-11.65,2.68C239.82,85.42,237.96,85.27,235.89,84.98z"/>
	<path class="st0" d="M285.8,76.09c0.21,0.35,0.32,0.82,0.32,1.42c0,1.15-0.27,2.04-0.81,2.68c-1.05,1.3-2.53,2.49-4.44,3.58
		c-1.91,1.09-3.96,1.64-6.15,1.64c-2.98,0-5.29-0.82-6.93-2.46c-1.64-1.64-2.47-3.89-2.47-6.74c0-1.99,0.41-3.84,1.23-5.55
		c0.82-1.71,1.96-3.07,3.42-4.08c1.46-1.01,3.11-1.51,4.95-1.51c1.64,0,2.96,0.5,3.96,1.49s1.49,2.34,1.49,4.04
		c0,1.99-0.7,3.69-2.11,5.12s-3.78,2.55-7.12,3.39c0.71,1.32,2.06,1.99,4.04,1.99c1.28,0,2.73-0.45,4.36-1.36
		c1.63-0.91,3.04-2.09,4.23-3.56c0.34-0.4,0.72-0.6,1.15-0.6C285.29,75.57,285.59,75.74,285.8,76.09z M271.55,71.17
		c-0.72,1.24-1.08,2.73-1.08,4.49v0.09c1.67-0.4,2.99-1.01,3.96-1.81c0.96-0.81,1.45-1.74,1.45-2.81c0-0.55-0.15-0.99-0.45-1.32
		c-0.3-0.33-0.7-0.5-1.21-0.5C273.16,69.31,272.27,69.93,271.55,71.17z"/>
	<path class="st0" d="M284.31,83.02c-1.55-1.6-2.32-3.71-2.32-6.33c0-2.33,0.45-4.38,1.36-6.13s2.08-3.11,3.53-4.06
		c1.45-0.95,2.96-1.42,4.55-1.42c1.56,0,2.77,0.47,3.64,1.4c0.86,0.94,1.3,2.14,1.3,3.61c0,1.21-0.26,2.23-0.79,3.07
		c-0.53,0.83-1.21,1.25-2.06,1.25c-0.54,0-0.97-0.13-1.3-0.39s-0.49-0.62-0.49-1.08c0-0.2,0.03-0.43,0.09-0.69
		c0.06-0.26,0.1-0.45,0.13-0.56c0.14-0.43,0.21-0.83,0.21-1.21c0-0.37-0.09-0.66-0.28-0.86c-0.18-0.2-0.45-0.3-0.79-0.3
		c-0.65,0-1.26,0.29-1.83,0.88c-0.57,0.59-1.02,1.39-1.36,2.4c-0.34,1.01-0.51,2.12-0.51,3.32c0,3.34,1.43,5.01,4.3,5.01
		c1.16,0,2.42-0.4,3.76-1.19c1.35-0.79,2.67-1.98,3.98-3.56c0.34-0.4,0.72-0.6,1.15-0.6c0.37,0,0.66,0.17,0.87,0.52
		c0.21,0.35,0.32,0.82,0.32,1.42c0,1.09-0.27,1.99-0.81,2.68c-1.33,1.67-2.93,2.96-4.79,3.86c-1.86,0.91-3.65,1.36-5.38,1.36
		C288.02,85.42,285.85,84.62,284.31,83.02z"/>
	<path class="st0" d="M318.14,82.65c0,0.72-0.32,1.36-0.96,1.92c-0.64,0.56-1.55,0.84-2.74,0.84c-2.04,0-3.71-0.64-5-1.92
		c-1.29-1.28-1.94-2.96-1.94-5.03c0-1.12,0.57-1.93,1.7-2.42c1.25-0.55,2.14-1.13,2.68-1.75c0.54-0.62,0.81-1.37,0.81-2.27
		c0-0.52-0.11-0.91-0.32-1.17c-0.21-0.26-0.48-0.39-0.79-0.39c-0.77,0-1.61,0.56-2.53,1.68c-0.92,1.12-1.78,2.57-2.57,4.34
		c-0.79,1.77-1.42,3.59-1.87,5.46c-0.31,1.35-0.67,2.27-1.08,2.74c-0.41,0.47-1.06,0.71-1.93,0.71c-0.88,0-1.52-0.32-1.94-0.97
		s-0.69-1.65-0.83-3c-0.14-1.35-0.21-3.34-0.21-5.96c0-4.43,0.45-9.05,1.34-13.86c0.89-4.81,2.21-8.84,3.96-12.11
		c1.74-3.27,3.83-4.9,6.27-4.9c1.3,0,2.36,0.57,3.17,1.71c0.81,1.14,1.21,2.61,1.21,4.42c0,2.91-0.84,5.92-2.51,9.05
		c-1.67,3.12-4.4,6.77-8.17,10.95c-0.08,1.5-0.13,3.04-0.13,4.62c1.36-3.6,2.92-6.21,4.68-7.84s3.4-2.44,4.93-2.44
		c1.42,0,2.56,0.49,3.42,1.47c0.86,0.98,1.3,2.19,1.3,3.63c0,1.58-0.4,3.04-1.19,4.36c-0.79,1.33-2.16,2.5-4.08,3.54
		c0.17,0.86,0.52,1.46,1.04,1.79c0.52,0.33,1.37,0.61,2.53,0.84C317.56,80.94,318.14,81.59,318.14,82.65z M307.59,51.11
		c-0.62,1.48-1.23,3.48-1.81,6s-1.06,5.26-1.42,8.22c1.76-2.1,3.21-4.39,4.36-6.87c1.15-2.47,1.72-4.72,1.72-6.74
		c0-0.92-0.1-1.63-0.3-2.12s-0.48-0.73-0.85-0.73C308.78,48.89,308.22,49.63,307.59,51.11z"/>
</g>
<g>
	<path class="st0" d="M92.65,112.25v-12.07h3.83c1.23,0,2.26,0.27,3.07,0.81c0.81,0.54,1.43,1.26,1.84,2.18
		c0.41,0.91,0.62,1.92,0.62,3.04c0,1.22-0.23,2.29-0.68,3.2c-0.45,0.91-1.09,1.61-1.92,2.11c-0.83,0.5-1.81,0.75-2.93,0.75H92.65z
		 M101.43,106.2c0-1.05-0.19-2-0.58-2.82c-0.39-0.83-0.94-1.48-1.68-1.95s-1.63-0.71-2.7-0.71h-3.25v10.98h3.25
		c1.08,0,1.99-0.24,2.73-0.72c0.74-0.48,1.29-1.14,1.67-1.98S101.43,107.23,101.43,106.2z"/>
	<path class="st0" d="M110.86,112.42c-0.57,0-1.11-0.12-1.63-0.37c-0.51-0.24-0.96-0.58-1.34-1s-0.68-0.92-0.89-1.48
		c-0.21-0.56-0.32-1.16-0.32-1.79c0-0.82,0.18-1.58,0.55-2.25c0.36-0.68,0.86-1.22,1.48-1.63c0.62-0.41,1.32-0.61,2.09-0.61
		c0.79,0,1.5,0.21,2.12,0.62s1.12,0.96,1.5,1.64c0.37,0.68,0.56,1.44,0.56,2.28c0,0.04,0,0.09,0,0.14c0,0.04-0.01,0.09-0.02,0.13
		h-7.7c0.06,0.71,0.25,1.36,0.59,1.94s0.77,1.04,1.3,1.38s1.11,0.51,1.74,0.51c0.63,0,1.22-0.17,1.77-0.5
		c0.55-0.33,0.94-0.76,1.17-1.28l0.51,0.14c-0.17,0.41-0.42,0.78-0.78,1.1c-0.35,0.33-0.76,0.58-1.23,0.77
		C111.87,112.33,111.38,112.42,110.86,112.42z M107.25,107.61h7.17c-0.04-0.75-0.23-1.4-0.55-1.97c-0.32-0.57-0.75-1.02-1.28-1.35
		s-1.12-0.49-1.77-0.49c-0.64,0-1.22,0.16-1.74,0.49s-0.95,0.78-1.27,1.35C107.47,106.22,107.29,106.88,107.25,107.61z"/>
	<path class="st0" d="M120.08,99.84h0.58v10.97c0,0.37,0.09,0.64,0.27,0.81s0.42,0.26,0.72,0.26c0.14,0,0.31-0.02,0.49-0.05
		s0.34-0.07,0.49-0.12l0.13,0.48c-0.17,0.06-0.37,0.11-0.62,0.15c-0.25,0.05-0.46,0.07-0.64,0.07c-0.42,0-0.76-0.13-1.02-0.4
		c-0.26-0.27-0.4-0.63-0.4-1.09V99.84z"/>
	<path class="st0" d="M127.23,101.27v-1.43h0.56v1.43H127.23z M127.23,112.25v-8.84h0.56v8.84H127.23z"/>
	<path class="st0" d="M137.21,112.42c-0.58,0-1.13-0.12-1.64-0.36c-0.51-0.24-0.95-0.58-1.34-1c-0.39-0.42-0.69-0.91-0.9-1.47
		c-0.21-0.55-0.32-1.15-0.32-1.78c0-0.85,0.18-1.61,0.55-2.29c0.36-0.68,0.86-1.22,1.49-1.62c0.63-0.4,1.35-0.6,2.14-0.6
		c0.75,0,1.41,0.18,2,0.54c0.58,0.36,1.02,0.85,1.3,1.47l-0.54,0.2c-0.26-0.52-0.65-0.93-1.15-1.22s-1.05-0.44-1.66-0.44
		c-0.66,0-1.26,0.18-1.8,0.53c-0.54,0.35-0.97,0.83-1.29,1.42s-0.48,1.27-0.48,2.02c0,0.74,0.16,1.41,0.49,2.04s0.76,1.12,1.3,1.48
		c0.55,0.37,1.14,0.55,1.79,0.55c0.43,0,0.85-0.08,1.26-0.25s0.76-0.38,1.06-0.65c0.3-0.27,0.49-0.55,0.58-0.86l0.56,0.17
		c-0.13,0.41-0.37,0.77-0.72,1.1c-0.35,0.32-0.75,0.58-1.21,0.76C138.21,112.33,137.72,112.42,137.21,112.42z"/>
	<path class="st0" d="M145.7,101.27v-1.43h0.56v1.43H145.7z M145.7,112.25v-8.84h0.56v8.84H145.7z"/>
	<path class="st0" d="M155.61,112.42c-0.57,0-1.11-0.12-1.62-0.36c-0.51-0.24-0.95-0.57-1.32-0.99c-0.37-0.42-0.67-0.91-0.88-1.46
		c-0.21-0.55-0.31-1.13-0.31-1.74c0-0.62,0.11-1.21,0.32-1.76c0.21-0.55,0.51-1.04,0.88-1.47c0.37-0.42,0.81-0.75,1.32-0.99
		c0.51-0.24,1.04-0.36,1.6-0.36c0.57,0,1.11,0.12,1.61,0.36c0.5,0.24,0.94,0.57,1.32,0.99c0.38,0.42,0.68,0.91,0.89,1.47
		c0.21,0.55,0.32,1.14,0.32,1.76c0,0.61-0.1,1.19-0.31,1.74c-0.21,0.55-0.5,1.04-0.88,1.46c-0.38,0.42-0.82,0.75-1.32,0.99
		S156.19,112.42,155.61,112.42z M152.04,107.89c0,0.74,0.16,1.41,0.48,2.01c0.32,0.61,0.75,1.09,1.29,1.44
		c0.54,0.36,1.13,0.53,1.78,0.53c0.66,0,1.26-0.18,1.8-0.54c0.54-0.36,0.97-0.85,1.3-1.47c0.32-0.62,0.49-1.29,0.49-2.01
		c0-0.74-0.16-1.41-0.49-2.02s-0.76-1.1-1.3-1.46c-0.54-0.36-1.13-0.54-1.78-0.54c-0.64,0-1.23,0.18-1.78,0.55
		c-0.54,0.37-0.98,0.86-1.3,1.48S152.04,107.15,152.04,107.89z"/>
	<path class="st0" d="M164.87,108.45v-5.02h0.56v4.95c0,1.18,0.19,2.05,0.57,2.63s0.96,0.87,1.73,0.87c0.52,0,1.02-0.12,1.49-0.36
		s0.9-0.57,1.26-1.01c0.36-0.44,0.63-0.93,0.79-1.48v-5.6h0.56v7.94c0,0.11,0.03,0.2,0.08,0.27c0.06,0.07,0.13,0.1,0.21,0.1v0.51
		c-0.08,0-0.14,0-0.19,0c-0.05,0-0.09-0.01-0.12-0.02c-0.14-0.03-0.26-0.12-0.35-0.25c-0.09-0.13-0.14-0.28-0.14-0.45l-0.02-1.46
		c-0.37,0.72-0.89,1.3-1.55,1.71c-0.66,0.42-1.38,0.63-2.15,0.63c-0.9,0-1.59-0.33-2.05-1C165.1,110.75,164.87,109.76,164.87,108.45
		z"/>
	<path class="st0" d="M180.28,112.42c-0.66,0-1.28-0.12-1.84-0.35c-0.57-0.23-1.07-0.59-1.49-1.08l0.3-0.41
		c0.46,0.45,0.94,0.79,1.42,1c0.48,0.22,1.02,0.32,1.6,0.32c0.8,0,1.46-0.17,1.95-0.53c0.5-0.35,0.74-0.84,0.74-1.46
		c0-0.41-0.11-0.72-0.34-0.95c-0.22-0.23-0.55-0.41-0.97-0.55c-0.43-0.14-0.94-0.29-1.54-0.43c-0.6-0.16-1.09-0.31-1.48-0.47
		c-0.39-0.15-0.69-0.36-0.88-0.62c-0.2-0.26-0.3-0.62-0.3-1.09c0-0.59,0.14-1.07,0.42-1.43c0.28-0.37,0.65-0.64,1.12-0.82
		s0.98-0.27,1.54-0.27c0.68,0,1.27,0.12,1.77,0.36c0.49,0.24,0.85,0.54,1.07,0.9l-0.36,0.32c-0.24-0.35-0.59-0.62-1.05-0.8
		s-0.96-0.27-1.49-0.27c-0.44,0-0.85,0.07-1.22,0.2s-0.68,0.34-0.91,0.62c-0.23,0.28-0.35,0.65-0.35,1.11
		c0,0.37,0.08,0.66,0.25,0.87c0.17,0.2,0.41,0.37,0.74,0.48c0.33,0.12,0.75,0.25,1.25,0.38c0.67,0.17,1.25,0.34,1.74,0.52
		c0.49,0.17,0.87,0.4,1.13,0.69c0.26,0.28,0.4,0.68,0.4,1.19c0,0.79-0.29,1.42-0.88,1.87C182.03,112.19,181.25,112.42,180.28,112.42
		z"/>
	<path class="st0" d="M204.82,109.12c0,0.57-0.13,1.09-0.41,1.56c-0.27,0.48-0.63,0.86-1.1,1.14s-0.97,0.42-1.52,0.42h-5.47v-12.07
		h5.32c0.55,0,1.03,0.15,1.43,0.45c0.4,0.3,0.71,0.69,0.93,1.16c0.21,0.47,0.32,0.96,0.32,1.47c0,0.61-0.15,1.17-0.45,1.68
		c-0.3,0.51-0.71,0.88-1.24,1.12c0.67,0.2,1.2,0.59,1.59,1.16C204.63,107.78,204.82,108.42,204.82,109.12z M196.91,100.72v5.17h4.54
		c0.45,0,0.85-0.12,1.2-0.37c0.35-0.25,0.62-0.57,0.82-0.97c0.2-0.4,0.3-0.81,0.3-1.24c0-0.46-0.09-0.89-0.28-1.28
		c-0.19-0.39-0.45-0.71-0.79-0.94s-0.72-0.36-1.15-0.36H196.91z M204.26,109.07c0-0.46-0.1-0.9-0.3-1.29
		c-0.21-0.4-0.48-0.72-0.84-0.98c-0.36-0.25-0.76-0.38-1.2-0.38h-5v5.29h4.89c0.45,0,0.87-0.13,1.24-0.38
		c0.38-0.25,0.67-0.58,0.89-0.99S204.26,109.51,204.26,109.07z"/>
	<path class="st0" d="M209.37,109.72c0-0.52,0.15-0.97,0.46-1.35c0.31-0.38,0.73-0.68,1.26-0.9c0.53-0.22,1.14-0.33,1.85-0.33
		c0.46,0,0.94,0.04,1.44,0.13c0.5,0.08,0.94,0.2,1.34,0.35v-0.93c0-0.86-0.24-1.56-0.73-2.08s-1.15-0.79-1.97-0.79
		c-0.42,0-0.86,0.09-1.33,0.27c-0.47,0.18-0.95,0.45-1.43,0.8l-0.28-0.42c0.56-0.4,1.09-0.69,1.6-0.88c0.51-0.19,1-0.29,1.47-0.29
		c0.99,0,1.78,0.31,2.36,0.92c0.58,0.62,0.88,1.45,0.88,2.5v4.65c0,0.12,0.03,0.22,0.07,0.28c0.05,0.06,0.12,0.09,0.22,0.09v0.51
		c-0.08,0-0.14,0-0.19,0c-0.05,0-0.09-0.01-0.12-0.02c-0.15-0.03-0.28-0.12-0.36-0.26c-0.09-0.14-0.14-0.28-0.15-0.44v-0.76
		c-0.4,0.52-0.91,0.93-1.54,1.21s-1.3,0.43-2.02,0.43c-0.53,0-1.01-0.12-1.44-0.36c-0.43-0.24-0.77-0.56-1.02-0.97
		C209.49,110.68,209.37,110.22,209.37,109.72z M215.41,110.49c0.1-0.13,0.17-0.27,0.22-0.4c0.05-0.13,0.07-0.25,0.07-0.35v-1.61
		c-0.43-0.17-0.87-0.3-1.33-0.38c-0.46-0.08-0.93-0.13-1.41-0.13c-0.91,0-1.65,0.19-2.21,0.57c-0.56,0.38-0.84,0.88-0.84,1.5
		c0,0.41,0.1,0.78,0.31,1.12c0.2,0.34,0.48,0.61,0.84,0.81s0.76,0.3,1.2,0.3c0.68,0,1.31-0.13,1.88-0.4
		C214.7,111.26,215.12,110.92,215.41,110.49z"/>
	<path class="st0" d="M222.07,99.84h0.58v10.97c0,0.37,0.09,0.64,0.27,0.81c0.18,0.18,0.42,0.26,0.72,0.26
		c0.14,0,0.31-0.02,0.49-0.05s0.34-0.07,0.49-0.12l0.13,0.48c-0.17,0.06-0.37,0.11-0.62,0.15c-0.25,0.05-0.46,0.07-0.64,0.07
		c-0.42,0-0.76-0.13-1.02-0.4c-0.26-0.27-0.4-0.63-0.4-1.09V99.84z"/>
	<path class="st0" d="M235.48,112.25l-3.5-4.91l-2.2,2.06v2.84h-0.56V99.84h0.56v8.87l5.57-5.28h0.68l-3.65,3.54l3.75,5.28H235.48z"
		/>
	<path class="st0" d="M240.02,109.72c0-0.52,0.15-0.97,0.46-1.35c0.31-0.38,0.73-0.68,1.26-0.9c0.53-0.22,1.14-0.33,1.85-0.33
		c0.46,0,0.94,0.04,1.44,0.13c0.5,0.08,0.94,0.2,1.34,0.35v-0.93c0-0.86-0.24-1.56-0.73-2.08s-1.15-0.79-1.97-0.79
		c-0.42,0-0.86,0.09-1.33,0.27c-0.47,0.18-0.95,0.45-1.43,0.8l-0.28-0.42c0.56-0.4,1.09-0.69,1.6-0.88c0.51-0.19,1-0.29,1.47-0.29
		c0.99,0,1.78,0.31,2.36,0.92c0.58,0.62,0.88,1.45,0.88,2.5v4.65c0,0.12,0.03,0.22,0.07,0.28c0.05,0.06,0.12,0.09,0.22,0.09v0.51
		c-0.08,0-0.14,0-0.19,0c-0.05,0-0.09-0.01-0.12-0.02c-0.15-0.03-0.28-0.12-0.36-0.26c-0.09-0.14-0.14-0.28-0.15-0.44v-0.76
		c-0.4,0.52-0.91,0.93-1.54,1.21s-1.3,0.43-2.02,0.43c-0.53,0-1.01-0.12-1.44-0.36c-0.43-0.24-0.77-0.56-1.02-0.97
		C240.14,110.68,240.02,110.22,240.02,109.72z M246.06,110.49c0.1-0.13,0.17-0.27,0.22-0.4c0.05-0.13,0.07-0.25,0.07-0.35v-1.61
		c-0.43-0.17-0.87-0.3-1.33-0.38c-0.46-0.08-0.93-0.13-1.41-0.13c-0.91,0-1.65,0.19-2.21,0.57c-0.56,0.38-0.84,0.88-0.84,1.5
		c0,0.41,0.1,0.78,0.31,1.12c0.2,0.34,0.48,0.61,0.84,0.81s0.76,0.3,1.2,0.3c0.68,0,1.31-0.13,1.88-0.4
		C245.35,111.26,245.78,110.92,246.06,110.49z"/>
	<path class="st0" d="M259.48,112.25h-0.56v-4.92c0-1.2-0.17-2.08-0.5-2.65s-0.87-0.85-1.59-0.85c-0.52,0-1.02,0.13-1.52,0.38
		c-0.5,0.25-0.93,0.6-1.3,1.03c-0.37,0.44-0.63,0.93-0.8,1.48v5.51h-0.56v-8.82h0.54v2.21c0.23-0.46,0.54-0.87,0.93-1.22
		c0.39-0.35,0.83-0.62,1.31-0.82s0.98-0.3,1.49-0.3c0.45,0,0.84,0.08,1.16,0.25c0.32,0.17,0.59,0.42,0.79,0.75s0.36,0.74,0.46,1.24
		c0.1,0.5,0.15,1.08,0.15,1.73V112.25z"/>
	<path class="st0" d="M272.85,112.25v-12.07h7.6v0.54h-7.02v5.1h5.96v0.53h-5.96v5.9H272.85z"/>
	<path class="st0" d="M288.58,112.42c-0.57,0-1.11-0.12-1.62-0.36c-0.51-0.24-0.95-0.57-1.32-0.99c-0.38-0.42-0.67-0.91-0.88-1.46
		c-0.21-0.55-0.31-1.13-0.31-1.74c0-0.62,0.11-1.21,0.32-1.76c0.21-0.55,0.51-1.04,0.88-1.47c0.37-0.42,0.81-0.75,1.32-0.99
		s1.04-0.36,1.6-0.36c0.57,0,1.11,0.12,1.61,0.36c0.5,0.24,0.94,0.57,1.32,0.99c0.38,0.42,0.68,0.91,0.89,1.47
		c0.21,0.55,0.32,1.14,0.32,1.76c0,0.61-0.11,1.19-0.31,1.74c-0.21,0.55-0.5,1.04-0.88,1.46c-0.38,0.42-0.82,0.75-1.32,0.99
		C289.7,112.3,289.16,112.42,288.58,112.42z M285.01,107.89c0,0.74,0.16,1.41,0.48,2.01c0.32,0.61,0.75,1.09,1.29,1.44
		c0.54,0.36,1.13,0.53,1.78,0.53c0.66,0,1.26-0.18,1.8-0.54c0.54-0.36,0.97-0.85,1.3-1.47c0.32-0.62,0.49-1.29,0.49-2.01
		c0-0.74-0.16-1.41-0.49-2.02c-0.33-0.61-0.76-1.1-1.3-1.46c-0.54-0.36-1.13-0.54-1.79-0.54c-0.64,0-1.23,0.18-1.78,0.55
		c-0.54,0.37-0.98,0.86-1.3,1.48C285.17,106.48,285.01,107.15,285.01,107.89z"/>
	<path class="st0" d="M301.44,112.42c-0.57,0-1.11-0.12-1.62-0.36s-0.95-0.57-1.32-0.99c-0.38-0.42-0.67-0.91-0.88-1.46
		c-0.21-0.55-0.31-1.13-0.31-1.74c0-0.62,0.11-1.21,0.32-1.76c0.21-0.55,0.51-1.04,0.88-1.47c0.38-0.42,0.81-0.75,1.32-0.99
		c0.51-0.24,1.04-0.36,1.6-0.36c0.57,0,1.11,0.12,1.61,0.36c0.5,0.24,0.94,0.57,1.32,0.99c0.38,0.42,0.68,0.91,0.89,1.47
		c0.21,0.55,0.32,1.14,0.32,1.76c0,0.61-0.1,1.19-0.31,1.74c-0.21,0.55-0.5,1.04-0.88,1.46c-0.38,0.42-0.82,0.75-1.32,0.99
		C302.57,112.3,302.03,112.42,301.44,112.42z M297.87,107.89c0,0.74,0.16,1.41,0.48,2.01c0.32,0.61,0.75,1.09,1.29,1.44
		s1.13,0.53,1.78,0.53c0.66,0,1.26-0.18,1.8-0.54c0.54-0.36,0.97-0.85,1.3-1.47c0.32-0.62,0.49-1.29,0.49-2.01
		c0-0.74-0.16-1.41-0.49-2.02s-0.76-1.1-1.3-1.46s-1.13-0.54-1.78-0.54c-0.64,0-1.23,0.18-1.78,0.55c-0.54,0.37-0.98,0.86-1.3,1.48
		C298.04,106.48,297.87,107.15,297.87,107.89z"/>
	<path class="st0" d="M310.18,107.87c0-0.83,0.17-1.58,0.52-2.27c0.35-0.69,0.82-1.25,1.41-1.67c0.59-0.42,1.27-0.64,2.03-0.64
		c0.77,0,1.45,0.21,2.05,0.64c0.6,0.42,1.06,0.93,1.39,1.5v-5.59h0.56v11.53c0,0.11,0.03,0.2,0.08,0.27c0.05,0.07,0.12,0.1,0.21,0.1
		v0.51c-0.13,0.01-0.23,0.01-0.3-0.02c-0.15-0.05-0.28-0.14-0.38-0.27s-0.15-0.28-0.15-0.44v-1.07c-0.35,0.59-0.83,1.07-1.44,1.43
		c-0.61,0.36-1.23,0.54-1.87,0.54c-0.59,0-1.14-0.13-1.65-0.38c-0.51-0.25-0.95-0.6-1.31-1.04c-0.37-0.44-0.66-0.92-0.86-1.47
		C310.28,108.99,310.18,108.44,310.18,107.87z M317.58,109.33v-3.04c-0.15-0.46-0.41-0.88-0.78-1.25c-0.36-0.37-0.77-0.66-1.22-0.88
		c-0.45-0.22-0.9-0.33-1.36-0.33c-0.53,0-1,0.11-1.43,0.34c-0.42,0.23-0.79,0.53-1.1,0.92c-0.31,0.38-0.54,0.82-0.7,1.3
		c-0.16,0.48-0.24,0.97-0.24,1.48c0,0.53,0.09,1.04,0.27,1.52c0.18,0.48,0.44,0.91,0.78,1.29c0.34,0.38,0.72,0.67,1.16,0.88
		c0.44,0.21,0.91,0.31,1.41,0.31c0.32,0,0.66-0.06,1.02-0.2c0.36-0.13,0.7-0.31,1.03-0.55c0.32-0.24,0.59-0.51,0.8-0.82
		C317.43,110,317.55,109.67,317.58,109.33z"/>
</g>
<g>
</g>
<g>
</g>
<g>
</g>
<g>
</g>
<g>
</g>
<g>
</g>
</svg>
