<?xml version="1.0" encoding="utf-8"?>
<!-- Generator: Adobe Illustrator 25.1.0, SVG Export Plug-In . SVG Version: 6.00 Build 0)  -->
<svg version="1.1" id="Layer_1" xmlns="http://www.w3.org/2000/svg" xmlns:xlink="http://www.w3.org/1999/xlink" x="0px" y="0px"
	 viewBox="0 0 234.22 49.78" style="enable-background:new 0 0 234.22 49.78;" xml:space="preserve">
<style type="text/css">
	.st0{fill:#1E1E1E;}
</style>
<g>
	<path class="st0" d="M11.35,43.98c-2.5-1.25-4.41-3.03-5.74-5.33c-1.33-2.3-2-4.98-2-8.03c0-4.23,0.79-7.99,2.36-11.27
		c1.57-3.28,3.71-5.82,6.4-7.62c2.69-1.8,5.68-2.7,8.97-2.7c3.06,0,5.39,0.8,6.97,2.4c1.59,1.6,2.38,3.71,2.38,6.33
		c0,1.76-0.3,3.17-0.91,4.23c-0.61,1.07-1.48,1.6-2.62,1.6c-0.79,0-1.42-0.19-1.87-0.56c-0.45-0.37-0.68-0.92-0.68-1.64
		c0-0.26,0.06-0.73,0.17-1.43c0.17-0.86,0.25-1.55,0.25-2.07c0-2.62-1.38-3.93-4.12-3.93c-1.87,0-3.66,0.62-5.36,1.86
		c-1.7,1.24-3.08,3.06-4.12,5.46c-1.05,2.4-1.57,5.26-1.57,8.57c0,3.45,0.95,6.12,2.85,8.01c1.9,1.88,4.71,2.83,8.42,2.83
		c1.84,0,3.71-0.24,5.59-0.71c1.89-0.47,3.98-1.2,6.27-2.18c0.43-0.17,0.78-0.26,1.06-0.26c0.45,0,0.79,0.17,1.02,0.52
		c0.23,0.34,0.34,0.79,0.34,1.34c0,1.76-0.94,3.05-2.81,3.89c-2.01,0.89-4.1,1.55-6.27,1.96s-4.23,0.63-6.19,0.63
		C16.78,45.86,13.85,45.23,11.35,43.98z"/>
	<path class="st0" d="M56.58,36.53c0.21,0.35,0.32,0.82,0.32,1.42c0,1.15-0.27,2.04-0.81,2.68c-1.3,1.53-2.64,2.78-4.02,3.76
		c-1.38,0.98-2.94,1.47-4.7,1.47c-1.45,0-2.54-0.42-3.27-1.27c-0.74-0.85-1.11-2.08-1.11-3.69c0-0.81,0.2-2.25,0.6-4.32
		c0.37-1.81,0.55-3.07,0.55-3.76c0-0.46-0.16-0.69-0.47-0.69c-0.37,0-0.89,0.48-1.57,1.45c-0.68,0.96-1.36,2.24-2.04,3.82
		c-0.68,1.58-1.23,3.25-1.66,5.01c-0.54,2.3-1.87,3.45-4,3.45c-0.85,0-1.41-0.31-1.68-0.93c-0.27-0.62-0.4-1.73-0.4-3.35
		c0-0.92,0.01-1.66,0.04-2.2l0.04-3.45c0-4.43,0.45-9.05,1.34-13.86c0.89-4.81,2.21-8.84,3.96-12.11c1.74-3.27,3.83-4.9,6.27-4.9
		c1.3,0,2.36,0.57,3.17,1.71c0.81,1.14,1.21,2.61,1.21,4.42c0,2.91-0.84,5.92-2.51,9.05c-1.67,3.12-4.4,6.77-8.17,10.95
		c-0.08,1.5-0.13,3.04-0.13,4.62c0.94-2.45,1.98-4.44,3.13-5.98c1.15-1.54,2.28-2.64,3.4-3.3c1.12-0.66,2.15-0.99,3.08-0.99
		c1.84,0,2.76,0.94,2.76,2.81c0,1.12-0.31,3.15-0.94,6.09c-0.54,2.5-0.81,4.16-0.81,4.96c0,1.15,0.41,1.73,1.23,1.73
		c0.57,0,1.24-0.35,2.02-1.06c0.78-0.7,1.82-1.85,3.13-3.43c0.34-0.4,0.72-0.6,1.15-0.6C56.08,36.02,56.37,36.19,56.58,36.53z
		 M41.38,11.56c-0.62,1.48-1.23,3.48-1.81,6c-0.58,2.52-1.06,5.26-1.42,8.22c1.76-2.1,3.21-4.39,4.36-6.87
		c1.15-2.47,1.72-4.72,1.72-6.74c0-0.92-0.1-1.63-0.3-2.12c-0.2-0.49-0.48-0.73-0.85-0.73C42.57,9.33,42,10.07,41.38,11.56z"/>
	<path class="st0" d="M75.99,32.95c0.2,0.38,0.3,0.85,0.3,1.43c0,1.38-0.41,2.2-1.23,2.46c-1.7,0.6-3.57,0.95-5.61,1.04
		c-0.54,2.42-1.6,4.35-3.19,5.81c-1.59,1.45-3.39,2.18-5.4,2.18c-1.7,0-3.15-0.42-4.36-1.25s-2.12-1.94-2.74-3.32
		c-0.62-1.38-0.94-2.88-0.94-4.49c0-2.19,0.41-4.14,1.23-5.85c0.82-1.71,1.96-3.05,3.4-4.02c1.45-0.96,3.05-1.45,4.81-1.45
		c2.15,0,3.89,0.75,5.21,2.27c1.32,1.51,2.09,3.38,2.32,5.59c1.33-0.09,2.92-0.37,4.76-0.86c0.23-0.06,0.43-0.09,0.6-0.09
		C75.51,32.39,75.8,32.58,75.99,32.95z M63.56,40.16c0.67-0.75,1.11-1.83,1.34-3.24c-0.88-0.6-1.55-1.4-2.02-2.38
		c-0.47-0.98-0.7-2.01-0.7-3.11c0-0.46,0.04-0.92,0.13-1.38h-0.21c-1.13,0-2.08,0.55-2.83,1.66c-0.75,1.11-1.13,2.67-1.13,4.68
		c0,1.58,0.3,2.79,0.91,3.63c0.61,0.84,1.33,1.25,2.15,1.25C62.1,41.28,62.89,40.91,63.56,40.16z"/>
	<path class="st0" d="M73.38,44.13c-0.44-1.15-0.66-2.99-0.66-5.53c0-3.74,0.52-7.3,1.57-10.66c0.25-0.83,0.67-1.45,1.25-1.83
		c0.58-0.39,1.4-0.58,2.45-0.58c0.57,0,0.96,0.07,1.19,0.22c0.23,0.14,0.34,0.42,0.34,0.82c0,0.46-0.21,1.5-0.64,3.11
		c-0.28,1.15-0.51,2.16-0.68,3.02c-0.17,0.86-0.31,1.93-0.43,3.2c0.94-2.48,1.98-4.49,3.15-6.04c1.16-1.55,2.3-2.66,3.42-3.32
		s2.15-0.99,3.08-0.99c1.84,0,2.76,0.94,2.76,2.81c0,0.37-0.13,1.28-0.38,2.72c-0.23,1.15-0.34,1.87-0.34,2.16
		c0,1.01,0.36,1.51,1.06,1.51c0.79,0,1.81-0.63,3.06-1.9c0.37-0.37,0.75-0.56,1.15-0.56c0.37,0,0.66,0.17,0.87,0.5
		s0.32,0.77,0.32,1.32c0,1.07-0.28,1.9-0.85,2.5c-0.79,0.84-1.72,1.55-2.79,2.14c-1.06,0.59-2.19,0.88-3.38,0.88
		c-1.5,0-2.64-0.39-3.42-1.17c-0.78-0.78-1.17-1.83-1.17-3.15c0-0.43,0.04-0.86,0.13-1.29c0.06-0.58,0.08-0.96,0.08-1.17
		c0-0.46-0.16-0.69-0.47-0.69c-0.43,0-0.99,0.48-1.68,1.45c-0.7,0.96-1.38,2.24-2.06,3.82c-0.68,1.58-1.23,3.25-1.66,5.01
		c-0.31,1.35-0.67,2.27-1.08,2.74c-0.41,0.47-1.06,0.71-1.94,0.71C74.58,45.86,73.82,45.28,73.38,44.13z"/>
	<path class="st0" d="M115.46,32.95c0.2,0.38,0.3,0.85,0.3,1.43c0,0.72-0.1,1.27-0.3,1.66c-0.2,0.39-0.51,0.65-0.94,0.8
		c-1.7,0.6-3.57,0.95-5.61,1.04c-0.57,2.39-1.64,4.32-3.21,5.79s-3.31,2.2-5.21,2.2c-2.86,0-4.95-1.11-6.25-3.32
		c-1.3-2.22-1.96-5.43-1.96-9.63c0-3.71,0.45-7.75,1.36-12.11c0.91-4.36,2.23-8.07,3.98-11.14c1.74-3.07,3.82-4.6,6.23-4.6
		c1.3,0,2.35,0.57,3.15,1.71c0.79,1.14,1.19,2.61,1.19,4.42c0,2.36-0.44,4.71-1.32,7.04c-0.88,2.33-2.34,4.78-4.38,7.34
		c1.9,0.14,3.45,0.94,4.64,2.4c1.19,1.45,1.9,3.25,2.13,5.38c1.33-0.09,2.92-0.37,4.76-0.86c0.17-0.06,0.37-0.09,0.6-0.09
		C114.98,32.39,115.26,32.58,115.46,32.95z M103,40.16c0.68-0.75,1.13-1.83,1.36-3.24c-0.88-0.6-1.55-1.4-2.02-2.38
		c-0.47-0.98-0.7-2.01-0.7-3.11c0-0.4,0.06-0.95,0.17-1.64h-0.13c-1.16,0-2.13,0.58-2.91,1.75c-0.78,1.17-1.17,2.73-1.17,4.68
		c0,1.64,0.3,2.89,0.91,3.76s1.33,1.3,2.15,1.3C101.54,41.28,102.32,40.91,103,40.16z M101.02,11.9c-0.67,1.71-1.28,4.04-1.85,6.97
		c-0.57,2.94-0.99,6.15-1.28,9.63c1.87-3.48,3.37-6.56,4.49-9.22c1.12-2.66,1.68-5.03,1.68-7.1c0-0.92-0.11-1.63-0.32-2.12
		s-0.5-0.73-0.87-0.73C102.3,9.33,101.69,10.19,101.02,11.9z"/>
	<path class="st0" d="M113.06,43.92c-1.01-1.29-1.51-2.99-1.51-5.09c0-2.3,0.52-4.48,1.57-6.54c1.05-2.06,2.45-3.71,4.19-4.96
		c1.74-1.25,3.59-1.88,5.55-1.88c0.62,0,1.04,0.12,1.25,0.37c0.21,0.25,0.39,0.68,0.53,1.32c0.54-0.12,1.13-0.17,1.79-0.17
		c0.68,0,1.2,0.17,1.57,0.52c0.37,0.35,0.55,0.84,0.55,1.47c0,0.66-0.14,1.81-0.42,3.45c-0.31,1.76-0.55,3.43-0.72,5.03
		c-0.17,1.6-0.25,3.39-0.25,5.38c0,1.09-0.22,1.88-0.66,2.35c-0.44,0.47-1.16,0.71-2.15,0.71c-0.96,0-1.68-0.24-2.15-0.71
		c-0.47-0.48-0.7-1.25-0.7-2.31l0.04-0.69c-0.88,2.48-2.4,3.71-4.55,3.71C115.37,45.86,114.06,45.21,113.06,43.92z M120.82,39.81
		c0.65-1.12,1.23-3.12,1.74-6l0.81-4.36c-1.16,0.03-2.24,0.48-3.23,1.36s-1.79,2.04-2.38,3.48c-0.59,1.44-0.89,2.96-0.89,4.58
		c0,0.86,0.16,1.52,0.49,1.96c0.33,0.45,0.76,0.67,1.3,0.67C119.44,41.5,120.17,40.94,120.82,39.81z"/>
	<path class="st0" d="M148.33,45.43c-1.13-0.14-1.91-0.45-2.34-0.91c-0.42-0.46-0.61-1.21-0.55-2.25c0.2-2.85,0.67-6.37,1.4-10.56
		c0.74-4.19,1.63-8.22,2.68-12.11c0.2-0.72,0.59-1.22,1.19-1.51c0.6-0.29,1.38-0.43,2.34-0.43c1.73,0,2.59,0.49,2.59,1.47
		c0,0.4-0.08,0.86-0.26,1.38c-0.74,2.3-1.47,5.39-2.21,9.26s-1.26,7.56-1.57,11.07c0.85,0.09,1.81,0.13,2.89,0.13
		c4.96,0,8.67-1.53,11.12-4.58c2.45-3.05,3.68-7.12,3.68-12.22c0-3.42-0.96-6.07-2.89-7.94c-1.93-1.87-4.65-2.81-8.17-2.81
		c-2.27,0-4.51,0.36-6.74,1.08c-2.23,0.72-4.23,1.67-6.02,2.85c-0.37,0.26-0.76,0.39-1.19,0.39c-0.48,0-0.87-0.21-1.15-0.63
		s-0.42-0.93-0.42-1.53c0-0.69,0.11-1.26,0.34-1.71c0.23-0.45,0.61-0.86,1.15-1.23c1.96-1.35,4.25-2.38,6.89-3.09
		c2.64-0.71,5.17-1.06,7.61-1.06c3.46,0,6.45,0.61,8.97,1.83c2.52,1.22,4.47,3.02,5.83,5.38c1.36,2.36,2.04,5.21,2.04,8.55
		c0,4.35-0.85,8.14-2.55,11.38s-4.18,5.75-7.44,7.53c-3.26,1.79-7.15,2.68-11.65,2.68C152.26,45.86,150.4,45.72,148.33,45.43z"/>
	<path class="st0" d="M198.24,36.53c0.21,0.35,0.32,0.82,0.32,1.42c0,1.15-0.27,2.04-0.81,2.68c-1.05,1.3-2.53,2.49-4.44,3.58
		c-1.91,1.09-3.96,1.64-6.14,1.64c-2.98,0-5.29-0.82-6.93-2.46c-1.64-1.64-2.47-3.89-2.47-6.74c0-1.99,0.41-3.84,1.23-5.55
		c0.82-1.71,1.96-3.07,3.42-4.08c1.46-1.01,3.11-1.51,4.95-1.51c1.64,0,2.96,0.5,3.96,1.49s1.49,2.34,1.49,4.04
		c0,1.99-0.7,3.69-2.11,5.12s-3.78,2.55-7.12,3.39c0.71,1.32,2.06,1.99,4.04,1.99c1.28,0,2.73-0.45,4.36-1.36
		c1.63-0.91,3.04-2.09,4.23-3.56c0.34-0.4,0.72-0.6,1.15-0.6C197.74,36.02,198.03,36.19,198.24,36.53z M184,31.61
		c-0.72,1.24-1.08,2.73-1.08,4.49v0.09c1.67-0.4,2.99-1.01,3.96-1.81c0.96-0.81,1.45-1.74,1.45-2.81c0-0.55-0.15-0.99-0.45-1.32
		c-0.3-0.33-0.7-0.5-1.21-0.5C185.6,29.76,184.72,30.37,184,31.61z"/>
	<path class="st0" d="M196.75,43.46c-1.55-1.6-2.32-3.71-2.32-6.33c0-2.33,0.45-4.38,1.36-6.13s2.08-3.11,3.53-4.06
		c1.45-0.95,2.96-1.42,4.55-1.42c1.56,0,2.77,0.47,3.64,1.4c0.86,0.94,1.3,2.14,1.3,3.61c0,1.21-0.26,2.23-0.79,3.07
		c-0.53,0.83-1.21,1.25-2.06,1.25c-0.54,0-0.97-0.13-1.3-0.39s-0.49-0.62-0.49-1.08c0-0.2,0.03-0.43,0.09-0.69
		c0.06-0.26,0.1-0.45,0.13-0.56c0.14-0.43,0.21-0.83,0.21-1.21c0-0.37-0.09-0.66-0.28-0.86c-0.18-0.2-0.45-0.3-0.79-0.3
		c-0.65,0-1.26,0.29-1.83,0.88c-0.57,0.59-1.02,1.39-1.36,2.4c-0.34,1.01-0.51,2.12-0.51,3.32c0,3.34,1.43,5.01,4.3,5.01
		c1.16,0,2.42-0.4,3.76-1.19c1.35-0.79,2.67-1.98,3.98-3.56c0.34-0.4,0.72-0.6,1.15-0.6c0.37,0,0.66,0.17,0.87,0.52
		c0.21,0.35,0.32,0.82,0.32,1.42c0,1.09-0.27,1.99-0.81,2.68c-1.33,1.67-2.93,2.96-4.79,3.86c-1.86,0.91-3.65,1.36-5.38,1.36
		C200.46,45.86,198.3,45.06,196.75,43.46z"/>
	<path class="st0" d="M230.58,43.1c0,0.72-0.32,1.36-0.96,1.92c-0.64,0.56-1.55,0.84-2.74,0.84c-2.04,0-3.71-0.64-5-1.92
		c-1.29-1.28-1.94-2.96-1.94-5.03c0-1.12,0.57-1.93,1.7-2.42c1.25-0.55,2.14-1.13,2.68-1.75c0.54-0.62,0.81-1.37,0.81-2.27
		c0-0.52-0.11-0.91-0.32-1.17c-0.21-0.26-0.47-0.39-0.79-0.39c-0.77,0-1.61,0.56-2.53,1.68c-0.92,1.12-1.78,2.57-2.57,4.34
		c-0.79,1.77-1.42,3.59-1.87,5.46c-0.31,1.35-0.67,2.27-1.08,2.74c-0.41,0.47-1.06,0.71-1.93,0.71c-0.88,0-1.52-0.32-1.94-0.97
		s-0.69-1.65-0.83-3c-0.14-1.35-0.21-3.34-0.21-5.96c0-4.43,0.45-9.05,1.34-13.86c0.89-4.81,2.21-8.84,3.96-12.11
		c1.74-3.27,3.83-4.9,6.27-4.9c1.3,0,2.36,0.57,3.17,1.71c0.81,1.14,1.21,2.61,1.21,4.42c0,2.91-0.84,5.92-2.51,9.05
		c-1.67,3.12-4.4,6.77-8.17,10.95c-0.08,1.5-0.13,3.04-0.13,4.62c1.36-3.6,2.92-6.21,4.68-7.84s3.4-2.44,4.93-2.44
		c1.42,0,2.56,0.49,3.42,1.47c0.86,0.98,1.3,2.19,1.3,3.63c0,1.58-0.4,3.04-1.19,4.36c-0.79,1.33-2.15,2.5-4.08,3.54
		c0.17,0.86,0.52,1.46,1.04,1.79c0.52,0.33,1.37,0.61,2.53,0.84C230,41.38,230.58,42.03,230.58,43.1z M220.04,11.56
		c-0.62,1.48-1.23,3.48-1.81,6s-1.06,5.26-1.42,8.22c1.76-2.1,3.21-4.39,4.36-6.87c1.15-2.47,1.72-4.72,1.72-6.74
		c0-0.92-0.1-1.63-0.3-2.12s-0.48-0.73-0.85-0.73C221.23,9.33,220.66,10.07,220.04,11.56z"/>
</g>
<g>
</g>
<g>
</g>
<g>
</g>
<g>
</g>
<g>
</g>
<g>
</g>
</svg>
